<?xml version="1.0" encoding="utf-8"?>
<!-- Generator: Adobe Illustrator 19.1.0, SVG Export Plug-In . SVG Version: 6.00 Build 0)  -->
<svg version="1.1" id="Layer_1" xmlns="http://www.w3.org/2000/svg" xmlns:xlink="http://www.w3.org/1999/xlink" x="0px" y="0px"
	 viewBox="0 0 800 1463.8" style="enable-background:new 0 0 800 1463.8;" xml:space="preserve">
<style type="text/css">
	.st0{display:none;}
	.st1{display:inline;fill:#074E90;}
	.st2{fill:url(#SVGID_1_);}
	.st3{fill:url(#SVGID_2_);}
	.st4{fill:url(#SVGID_3_);}
	.st5{fill:url(#SVGID_4_);}
	.st6{fill:url(#SVGID_5_);}
	.st7{fill:url(#SVGID_6_);}
	.st8{fill:url(#SVGID_7_);}
	.st9{fill:url(#SVGID_8_);}
	.st10{fill:url(#SVGID_9_);}
	.st11{fill:url(#SVGID_10_);}
	.st12{fill:url(#SVGID_11_);}
</style>
<g id="Layer_2" class="st0">
	<rect x="0" y="-36.2" class="st1" width="401" height="1000"/>
</g>
<linearGradient id="SVGID_1_" gradientUnits="userSpaceOnUse" x1="59.0975" y1="503.1533" x2="128.8557" y2="503.1533">
	<stop  offset="0" style="stop-color:#FFFFFF"/>
	<stop  offset="1" style="stop-color:#C52E2F"/>
</linearGradient>
<path class="st2" d="M108.6,963.8H79.3c-7.9-7.9-12.3-12.3-20.2-20.2V62.7c7.9-7.9,12.3-12.3,20.2-20.2h29.3
	c7.9,7.9,12.3,12.3,20.2,20.2v880.8C121,951.5,116.5,955.9,108.6,963.8z"/>
<linearGradient id="SVGID_2_" gradientUnits="userSpaceOnUse" x1="205.1996" y1="196.6145" x2="296.3661" y2="196.6145">
	<stop  offset="0" style="stop-color:#FFFFFF"/>
	<stop  offset="1" style="stop-color:#C52E2F"/>
</linearGradient>
<path class="st3" d="M258.1,329.6H225c-7.7-5.7-12.1-9-19.8-14.7V78.3c7.7-5.7,12.1-9,19.8-14.7h33.1c7.7,5.7,12.1,9,19.8,14.7
	l18.4,211C256,305.2,296.4,289.3,258.1,329.6z"/>
<linearGradient id="SVGID_3_" gradientUnits="userSpaceOnUse" x1="128.8557" y1="481.8906" x2="205.1996" y2="481.8906">
	<stop  offset="0" style="stop-color:#FFFFFF"/>
	<stop  offset="1" style="stop-color:#C52E2F"/>
</linearGradient>
<path class="st4" d="M180.3,963.8h-26.5c-9.7-9.7-15.2-15.2-24.9-24.9V24.9C138.6,15.2,144,9.7,153.8,0h26.5
	c9.7,9.7,15.2,15.2,24.9,24.9v913.9C195.5,948.6,190,954,180.3,963.8z"/>
<linearGradient id="SVGID_4_" gradientUnits="userSpaceOnUse" x1="270.0357" y1="422.1759" x2="396.1429" y2="494.9839">
	<stop  offset="0" style="stop-color:#FFFFFF;stop-opacity:0.1"/>
	<stop  offset="3.023437e-02" style="stop-color:#FDF9F9"/>
	<stop  offset="1" style="stop-color:#C52E2F"/>
</linearGradient>
<polygon class="st5" points="401,486.5 298.5,549.2 290.8,386.3 400.2,386.7 "/>
<linearGradient id="SVGID_5_" gradientUnits="userSpaceOnUse" x1="322.3333" y1="329.7812" x2="400" y2="329.7812">
	<stop  offset="0" style="stop-color:#FFFFFF"/>
	<stop  offset="1" style="stop-color:#C52E2F"/>
</linearGradient>
<path class="st6" d="M400,272.8h-38.4c-8.7,8.7-13.5,13.5-22.2,22.2l-17.1,91.4c39.7,0.5,0,0,39.7,0.5h16.5c21.8,0,0,0,21.5,0v-91.8
	C400,272.8,400,297.3,400,272.8z"/>
<linearGradient id="SVGID_6_" gradientUnits="userSpaceOnUse" x1="538.9648" y1="1177.3828" x2="538.9648" y2="1463.7812">
	<stop  offset="0" style="stop-color:#FFFFFF"/>
	<stop  offset="1" style="stop-color:#C52E2F"/>
</linearGradient>
<rect x="277.9" y="1177.4" class="st7" width="522.1" height="286.4"/>
<linearGradient id="SVGID_7_" gradientUnits="userSpaceOnUse" x1="1.818989e-12" y1="289.2812" x2="59.0975" y2="289.2812">
	<stop  offset="0" style="stop-color:#FFFFFF"/>
	<stop  offset="1" style="stop-color:#C52E2F"/>
</linearGradient>
<path class="st8" d="M44.6,463.8H14.5c-5.7-5.7-8.8-8.8-14.5-14.5v-320c5.7-5.7,8.8-8.8,14.5-14.5h30.1c5.7,5.7,8.8,8.8,14.5,14.5
	v320C53.4,454.9,50.3,458.1,44.6,463.8z"/>
<linearGradient id="SVGID_8_" gradientUnits="userSpaceOnUse" x1="0" y1="1006.4888" x2="277.9297" y2="1006.4888">
	<stop  offset="0" style="stop-color:#FFFFFF"/>
	<stop  offset="1" style="stop-color:#C52E2F"/>
</linearGradient>
<rect y="549.2" class="st9" width="277.9" height="914.6"/>
<linearGradient id="SVGID_9_" gradientUnits="userSpaceOnUse" x1="20.6769" y1="423.189" x2="285.4276" y2="270.3351">
	<stop  offset="0" style="stop-color:#FFFFFF"/>
	<stop  offset="1" style="stop-color:#C52E2F"/>
</linearGradient>
<polygon class="st10" points="298.5,387.4 0,387.4 0,310.5 296.4,289.3 "/>
<linearGradient id="SVGID_10_" gradientUnits="userSpaceOnUse" x1="156.6599" y1="385.1082" x2="233.557" y2="575.4351">
	<stop  offset="0" style="stop-color:#FFFFFF"/>
	<stop  offset="1" style="stop-color:#C52E2F"/>
</linearGradient>
<polygon class="st11" points="153.7,386.3 298.5,386.3 298.5,549.2 81.6,549.2 "/>
<linearGradient id="SVGID_11_" gradientUnits="userSpaceOnUse" x1="0" y1="467.2603" x2="153.7158" y2="467.2603">
	<stop  offset="0" style="stop-color:#FFFFFF"/>
	<stop  offset="1" style="stop-color:#C52E2F"/>
</linearGradient>
<polygon class="st12" points="81.6,549.2 0,549.2 0,385.3 153.7,386.3 "/>
</svg>
