<?xml version="1.0" encoding="utf-8"?>
<!-- Generator: Adobe Illustrator 19.1.0, SVG Export Plug-In . SVG Version: 6.00 Build 0)  -->
<svg version="1.1" id="Layer_1" xmlns="http://www.w3.org/2000/svg" xmlns:xlink="http://www.w3.org/1999/xlink" x="0px" y="0px"
	 viewBox="0 0 800 1463.8" style="enable-background:new 0 0 800 1463.8;" xml:space="preserve">
<style type="text/css">
	.st0{display:none;}
	.st1{display:inline;fill:#074E90;}
	.st2{fill:#C52E2F;}
</style>
<g id="Layer_2" class="st0">
	<rect x="0" y="-36.2" class="st1" width="401" height="1000"/>
</g>
<path class="st2" d="M110.6,963.8H81.3c-7.9-7.9-12.3-12.3-20.2-20.2V62.7c7.9-7.9,12.3-12.3,20.2-20.2h29.3
	c7.9,7.9,12.3,12.3,20.2,20.2v880.8C123,951.5,118.5,955.9,110.6,963.8z"/>
<path class="st2" d="M266.1,324.6H233c-7.7-5.7-12.1-9-19.8-14.7V73.3c7.7-5.7,12.1-9,19.8-14.7h33.1c7.7,5.7,12.1,9,19.8,14.7
	l18.4,211C264,300.2,304.4,284.3,266.1,324.6z"/>
<path class="st2" d="M185.3,963.8h-26.5c-9.7-9.7-15.2-15.2-24.9-24.9V24.9C143.6,15.2,149,9.7,158.8,0h26.5
	c9.7,9.7,15.2,15.2,24.9,24.9v913.9C200.5,948.6,195,954,185.3,963.8z"/>
<polygon class="st2" points="401,511.1 298.5,573.8 290.8,410.9 400.2,411.3 "/>
<path class="st2" d="M400,273.8h-38.4c-8.7,10.5-13.5,16.4-22.2,26.8l-17.1,110.7c39.7,0.6,0,0,39.7,0.6h16.5c21.8,0,0,0,21.5,0
	V300.6C400,273.8,400,303.5,400,273.8z"/>
<rect x="265.8" y="1177.4" class="st2" width="534.2" height="286.4"/>
<path class="st2" d="M44.6,463.8H14.5c-5.7-5.7-8.8-8.8-14.5-14.5v-320c5.7-5.7,8.8-8.8,14.5-14.5h30.1c5.7,5.7,8.8,8.8,14.5,14.5
	v320C53.4,454.9,50.3,458.1,44.6,463.8z"/>
<rect y="549.2" class="st2" width="277.9" height="914.6"/>
<polygon class="st2" points="306.5,410.9 8,410.9 8,310.2 304.4,282.3 "/>
<polygon class="st2" points="146,379.9 298.5,379.9 298.5,573.8 70,573.8 "/>
<polygon class="st2" points="197.1,559.9 0,549.2 0,373.3 153.7,374.4 "/>
</svg>
