<?xml version="1.0" encoding="utf-8"?>
<!-- Generator: Adobe Illustrator 19.1.0, SVG Export Plug-In . SVG Version: 6.00 Build 0)  -->
<svg version="1.1" id="Layer_1" xmlns="http://www.w3.org/2000/svg" xmlns:xlink="http://www.w3.org/1999/xlink" x="0px" y="0px"
	 viewBox="0 0 460.6 500" style="enable-background:new 0 0 460.6 500;" xml:space="preserve">
<style type="text/css">
	.st0{fill:#E86843;}
	.st1{fill:#3A407A;}
</style>
<polygon class="st0" points="79.9,128.7 54.6,86.6 208.3,21.6 219.3,37.4 "/>
<polygon class="st0" points="31.7,35.3 54.6,30.8 86.7,80.6 51.4,107.6 "/>
<polygon class="st0" points="187.3,162.7 162.8,186.2 63.2,123.7 103.6,96.7 "/>
<polygon class="st0" points="228,62.6 221.2,72.1 188.6,55 198.2,43 "/>
<polygon class="st0" points="219.3,37.4 202,24.6 205.2,6 219.3,0.4 "/>
<polygon class="st0" points="208.3,51.2 179.6,55.6 164.5,18.9 172.8,16.3 "/>
<path class="st0" d="M60.6,129.4c0,10.9-8.5,19.7-19,19.7s-25.8-4.8-25.8-15.6c0-10.9,6.9-30.1,25.8-23.8
	C51.6,112.9,60.6,118.5,60.6,129.4z"/>
<polygon class="st0" points="99.6,116.2 52.4,145.8 26.8,110.5 38.6,100.5 "/>
<path class="st0" d="M71.4,112.4c-11.9,6.8-20.7-0.3-29.3-1.2c-11.7-1.3,2-19,13.9-25.8s25-6.2,29.3,1.2
	C89.6,94,83.4,105.6,71.4,112.4z"/>
<path class="st1" d="M35.2,126c10.5,11.6,10.9,27.8,3.9,34.1c-7,6.3-18.8,0.4-29.3-11.2c-10.5-11.6-11-27.8-3.9-34.1
	C12.8,108.5,24.7,114.4,35.2,126z"/>
<path class="st0" d="M32.2,128.7c8,8.9,8.3,21.3,3,26.1s-14.4,0.3-22.4-8.5c-8-8.9-8.4-21.2-3-26.1S24.2,119.8,32.2,128.7z"/>
<path class="st1" d="M32.1,132c7.1,7.9,7.4,18.8,2.6,23.1c-4.8,4.3-12.7,0.3-19.8-7.6s-7.4-18.8-2.7-23.1S25,124.2,32.1,132z"/>
<path class="st1" d="M55,120.3l-13.5-11.8c-4.5-3.5-5.2-6.4-0.7-10.5l0.7-0.7c6.5-7.7,5.7-5.5,10.5-0.7l13.5,11.8
	c6.6,4.8,3.4,7.4,0.7,10.5l-0.7,0.7C62.8,122.7,58.1,123.1,55,120.3z"/>
<path class="st0" d="M22.7,139.1c0,2.1-1.1,2.4-3.2,2.4s-4.3-3.1-4.3-5.1c0-2.1,0.9-2.4,3-2.4S22.7,137,22.7,139.1z"/>
<path class="st0" d="M294.8,0c-34,0.7-58.1,6.4-58.8,15.7c0,0-0.1,0-0.1,0c11.6-4.7,32.9-7.2,58.9-7V0z"/>
<rect x="294.8" y="0" class="st0" width="157.7" height="8.7"/>
<rect x="451.9" y="0" class="st0" width="8.7" height="500"/>
<polygon class="st1" points="183.1,50.3 103.6,90.4 104.7,97 183.3,53.3 "/>
<path class="st1" d="M23.9,137.7c0,2.1-1.5,3.7-3.3,3.7c-1.8,0-3.3-1.7-3.3-3.7s1.5-2.7,3.3-2.7C22.4,135.1,23.9,135.7,23.9,137.7z"
	/>
</svg>
