<?xml version="1.0" encoding="utf-8"?>
<!-- Generator: Adobe Illustrator 19.1.0, SVG Export Plug-In . SVG Version: 6.00 Build 0)  -->
<svg version="1.1" id="Layer_1" xmlns="http://www.w3.org/2000/svg" xmlns:xlink="http://www.w3.org/1999/xlink" x="0px" y="0px"
	 viewBox="0 0 500 500" style="enable-background:new 0 0 500 500;" xml:space="preserve">
<style type="text/css">
	.st0{fill:#E86843;}
	.st1{fill:#3A407A;}
</style>
<polygon class="st0" points="85.2,128.7 59.8,86.6 217.4,22.9 227.4,41.5 "/>
<polygon class="st0" points="36.9,35.3 59.8,30.8 91.9,80.6 56.7,107.6 "/>
<polygon class="st0" points="191.3,170.4 159,191 65.9,121.4 101.8,88.7 "/>
<polygon class="st0" points="241.4,72.1 227.1,79.4 189.3,51.9 204.9,37.4 "/>
<polygon class="st0" points="227.4,41.5 210.1,28.6 216.1,9 227.4,4.4 "/>
<polygon class="st0" points="213.5,51.2 184.9,55.6 169,16.9 180.1,14.1 "/>
<path class="st0" d="M65.9,129.4c0,10.9-8.5,19.7-19,19.7s-25.8-4.8-25.8-15.6c0-10.9,6.9-30.1,25.8-23.8
	C56.9,112.9,65.9,118.5,65.9,129.4z"/>
<polygon class="st0" points="104.8,116.2 57.7,145.8 32,110.5 43.8,100.5 "/>
<path class="st0" d="M76.7,112.4c-11.9,6.8-20.7-0.3-29.3-1.2c-11.7-1.3,2-19,13.9-25.8s25-6.2,29.3,1.2
	C94.8,94,88.6,105.6,76.7,112.4z"/>
<path class="st1" d="M40.4,126c10.5,11.6,10.9,27.8,3.9,34.1c-7,6.3-18.8,0.4-29.3-11.2c-10.5-11.6-11-27.8-3.9-34.1
	C18.1,108.5,30,114.4,40.4,126z"/>
<path class="st0" d="M37.5,128.7c8,8.9,8.3,21.3,3,26.1S26,155.1,18,146.2c-8-8.9-8.4-21.2-3-26.1S29.4,119.8,37.5,128.7z"/>
<path class="st1" d="M37.3,132c7.1,7.9,7.4,18.8,2.6,23.1c-4.8,4.3-12.7,0.3-19.8-7.6s-7.4-18.8-2.7-23.1S30.3,124.2,37.3,132z"/>
<path class="st1" d="M60.2,120.3l-13.5-11.8c-4.5-3.5-5.2-6.4-0.7-10.5l0.7-0.7c6.5-7.7,5.7-5.5,10.5-0.7l13.5,11.8
	c6.6,4.8,3.4,7.4,0.7,10.5l-0.7,0.7C68.1,122.7,63.4,123.1,60.2,120.3z"/>
<path class="st0" d="M29,141.1c0,2.1-1.1,2.4-3.2,2.4s-4.3-3.1-4.3-5.1c0-2.1,0.9-2.4,3-2.4S29,139,29,141.1z"/>
<path class="st0" d="M300,6c-34,0.7-58.1,6.4-58.8,15.7c0,0-0.1,0-0.1,0c11.6-4.7,32.9-7.2,58.9-7V6z"/>
<rect x="300" y="6" class="st0" width="157.1" height="8.7"/>
<rect x="457.1" y="6" class="st0" width="8.7" height="494"/>
</svg>
