<?xml version="1.0" encoding="utf-8"?>
<!-- Generator: Adobe Illustrator 19.1.0, SVG Export Plug-In . SVG Version: 6.00 Build 0)  -->
<svg version="1.1" id="Layer_1" xmlns="http://www.w3.org/2000/svg" xmlns:xlink="http://www.w3.org/1999/xlink" x="0px" y="0px"
	 viewBox="0 0 50 32.2" style="enable-background:new 0 0 50 32.2;" xml:space="preserve">
<style type="text/css">
	.st0{fill:#333333;}
</style>
<g>
	<path class="st0" d="M24.7,29.5c-0.6,0.3-1.2,0.6-2,1c-0.8,0.3-1.6,0.6-2.4,0.8c-0.8,0.3-1.7,0.5-2.5,0.6c-0.8,0.2-1.6,0.2-2.4,0.2
		c-2.4,0-4.5-0.3-6.4-1c-1.9-0.6-3.5-1.6-4.8-2.9c-1.3-1.3-2.4-3-3.1-5c-0.7-2-1.1-4.4-1.1-7.2c0-2.9,0.4-5.4,1.3-7.4
		c0.8-2,2-3.7,3.4-5c1.4-1.3,3-2.2,4.8-2.8c1.8-0.6,3.6-0.9,5.5-0.9c2,0,3.6,0.1,4.9,0.4s2.5,0.6,3.5,1.1c0,0.4,0,1,0,1.6
		c0,0.7-0.1,1.3-0.1,2C23.2,6,23.1,6.7,23,7.4c-0.1,0.7-0.2,1.3-0.3,1.8h-1.2l-2.3-6.4c-0.3-0.2-0.9-0.3-1.6-0.4
		c-0.8-0.1-1.5-0.1-2.3-0.1c-1.5,0-2.9,0.3-4.2,0.8C9.8,3.7,8.7,4.6,7.7,5.7c-1,1.1-1.8,2.6-2.4,4.3s-0.9,3.8-0.9,6.1
		c0,2.1,0.3,4,0.9,5.7c0.6,1.7,1.4,3.1,2.4,4.3c1,1.2,2.2,2.1,3.6,2.8c1.4,0.7,2.9,1,4.4,1c0.6,0,1.2-0.1,1.7-0.2
		c0.6-0.1,1.1-0.3,1.5-0.4c0.5-0.2,0.9-0.3,1.2-0.5c0.3-0.2,0.5-0.3,0.6-0.4v-9c-0.8-0.1-1.5-0.2-2.2-0.4c-0.7-0.2-1.4-0.4-2.1-0.7
		V17h10.9v1.3c-0.3,0.2-0.7,0.4-1.1,0.6c-0.4,0.2-1,0.3-1.7,0.5V29.5z"/>
</g>
<g id="Book_Logo_41_">
	<rect x="36" y="5.6" class="st0" width="6.7" height="26.6"/>
	<rect x="27.9" y="7.9" transform="matrix(0.993 0.1185 -0.1185 0.993 2.5771 -3.5189)" class="st0" width="6" height="24.1"/>
	<rect x="43.4" y="8.3" class="st0" width="6.7" height="23.9"/>
</g>
</svg>
